<svg xmlns="http://www.w3.org/2000/svg" viewBox="0 0 16 16"><defs><style>.cls-1{fill:#424242;}.cls-2{fill:#b1e200;}.cls-3{fill:#ee4c00;}.cls-4{fill:#00bb68;}.cls-5{fill:#fff;}.cls-6{fill:#3b000f;}</style></defs><g id="Layer_2" data-name="Layer 2"><g id="Layer_1-2" data-name="Layer 1"><path class="cls-1" d="M4,0V4H0A4,4,0,0,1,4,0Z"/><path class="cls-2" d="M16,8a4,4,0,0,1-4,4V8Z"/><path class="cls-3" d="M12,12a4,4,0,0,1-4,4V12Z"/><path class="cls-4" d="M12,4v8H8A4,4,0,0,1,4,8V0H8A4,4,0,0,1,12,4Z"/><path class="cls-5" d="M10,4A2,2,0,1,1,8,2,2,2,0,0,1,10,4Z"/><circle class="cls-6" cx="8" cy="4" r="1"/></g></g></svg>