<svg xmlns="http://www.w3.org/2000/svg" viewBox="0 0 209.89 41.45"><defs><style>.cls-1{fill:#fff;}.cls-2{fill:#424242;}.cls-3{fill:#b1e200;}.cls-4{fill:#ee4c00;}.cls-5{fill:#00bb68;}.cls-6{fill:#3b000f;}</style></defs><g id="Layer_2" data-name="Layer 2"><g id="Layer_1-2" data-name="Layer 1"><path class="cls-1" d="M63.78,10.16v3.65h-6.4V31.08H53.73V13.81H47.34V10.16Z"/><path class="cls-1" d="M73.42,19.85a4,4,0,0,0-.88-.44,3.11,3.11,0,0,0-1-.16,3.08,3.08,0,0,0-1.87.57,3.62,3.62,0,0,0-1.21,1.51,5.18,5.18,0,0,0-.41,2.1v7.65H64.33V16.14H68V17.9a5.8,5.8,0,0,1,1.78-1.57,4.82,4.82,0,0,1,2.36-.58c.33,0,.66,0,1,0A3.86,3.86,0,0,1,74,16Z"/><path class="cls-1" d="M86.24,16.14h3.64V31.08H86.22l-.15-1.85a5,5,0,0,1-1.63,1.62,4.39,4.39,0,0,1-2.37.62A7.72,7.72,0,0,1,79,30.84a8,8,0,0,1-4.89-7.39,7.77,7.77,0,0,1,.59-3A7.42,7.42,0,0,1,76.3,18a7.75,7.75,0,0,1,2.45-1.66,7.46,7.46,0,0,1,3-.6,5.37,5.37,0,0,1,2.67.66,7,7,0,0,1,2,1.67ZM82.17,28a3.54,3.54,0,0,0,2.08-.61,3.93,3.93,0,0,0,1.34-1.64A4.69,4.69,0,0,0,86,23.45a5,5,0,0,0-.68-2.12,4.61,4.61,0,0,0-1.5-1.51,3.79,3.79,0,0,0-2-.57,3.75,3.75,0,0,0-2.11.61,4.16,4.16,0,0,0-1.44,1.64,4.22,4.22,0,0,0-.41,2.28,4.66,4.66,0,0,0,.75,2.1,4.88,4.88,0,0,0,1.59,1.51A4,4,0,0,0,82.17,28Z"/><path class="cls-1" d="M94.83,13.91a1.86,1.86,0,0,1-1.35-.53,1.88,1.88,0,0,1,0-2.66,1.86,1.86,0,0,1,1.35-.54,1.84,1.84,0,0,1,1.34.54,1.91,1.91,0,0,1,0,2.66A1.83,1.83,0,0,1,94.83,13.91ZM93,16.14h3.65V31.08H93Z"/><path class="cls-1" d="M115.29,23.36v7.72h-3.65V23.42a4.57,4.57,0,0,0-.48-2.1,4,4,0,0,0-1.32-1.52,3.39,3.39,0,0,0-2-.57,3.12,3.12,0,0,0-1.87.57,3.75,3.75,0,0,0-1.22,1.52,5.11,5.11,0,0,0-.42,2.1v7.66h-3.65V16.14h3.65V17.9a6,6,0,0,1,1.78-1.59,4.75,4.75,0,0,1,2.36-.59,6.21,6.21,0,0,1,3.58,1,6.88,6.88,0,0,1,2.34,2.77A8.82,8.82,0,0,1,115.29,23.36Z"/><path class="cls-1" d="M118.1,31.08V10.16h13.12v3.65h-9.48v4.24h7.52V21.7h-7.52v5.74h9.48v3.64Z"/><path class="cls-1" d="M148.28,23.36v7.72h-3.64V23.42a4.57,4.57,0,0,0-.48-2.1,4,4,0,0,0-1.32-1.52,3.43,3.43,0,0,0-2-.57,3.12,3.12,0,0,0-1.87.57,3.67,3.67,0,0,0-1.22,1.52,5.12,5.12,0,0,0-.43,2.1v7.66h-3.64V16.14h3.64V17.9a6,6,0,0,1,1.79-1.59,4.71,4.71,0,0,1,2.35-.59,6.19,6.19,0,0,1,3.58,1,6.9,6.9,0,0,1,2.35,2.77A9,9,0,0,1,148.28,23.36Z"/><path class="cls-1" d="M161.66,16.14h3.64V31.37a6.6,6.6,0,0,1-.65,2.93,7,7,0,0,1-1.8,2.28,8.18,8.18,0,0,1-2.6,1.46,9.26,9.26,0,0,1-3.08.52,7.31,7.31,0,0,1-3-.65,8.43,8.43,0,0,1-2.57-1.75,7.79,7.79,0,0,1-1.69-2.54l3.33-1.5a4.17,4.17,0,0,0,.9,1.44,4.69,4.69,0,0,0,1.4,1,4.1,4.1,0,0,0,1.64.35,5.76,5.76,0,0,0,1.67-.24,5,5,0,0,0,1.44-.69,3.43,3.43,0,0,0,1-1.11,3,3,0,0,0,.37-1.47V29.26a5.54,5.54,0,0,1-1.77,1.6,4.77,4.77,0,0,1-2.45.61,7.48,7.48,0,0,1-3-.61,7.79,7.79,0,0,1-2.47-1.7,7.89,7.89,0,0,1-1.67-2.5,7.93,7.93,0,0,1,0-6.1,8,8,0,0,1,4.14-4.2,7.65,7.65,0,0,1,3-.61,4.77,4.77,0,0,1,2.45.61A5.4,5.4,0,0,1,161.66,18ZM157.49,28a3.64,3.64,0,0,0,2-.59,4.12,4.12,0,0,0,1.4-1.58,4.85,4.85,0,0,0,.5-2.18,4.7,4.7,0,0,0-.51-2.18,4.31,4.31,0,0,0-1.41-1.58,3.53,3.53,0,0,0-2-.6,3.77,3.77,0,0,0-2.05.59A4.32,4.32,0,0,0,154,21.42a4.66,4.66,0,0,0,0,4.39,4.3,4.3,0,0,0,1.48,1.57A3.76,3.76,0,0,0,157.49,28Z"/><path class="cls-1" d="M168.17,31.08V8.67h3.65V31.08Z"/><path class="cls-1" d="M176.87,13.91a1.86,1.86,0,0,1-1.35-.53,1.88,1.88,0,0,1,0-2.66,1.86,1.86,0,0,1,1.35-.54,1.84,1.84,0,0,1,1.34.54,1.91,1.91,0,0,1,0,2.66A1.83,1.83,0,0,1,176.87,13.91ZM175,16.14h3.65V31.08H175Z"/><path class="cls-1" d="M187.52,31.35a7.92,7.92,0,0,1-2.25-.47,6.45,6.45,0,0,1-1.92-1.08,4.84,4.84,0,0,1-1.28-1.64l3.08-1.32a2.72,2.72,0,0,0,.58.64,3.73,3.73,0,0,0,1,.56,3.55,3.55,0,0,0,1.24.22A3.49,3.49,0,0,0,189,28.1a1.93,1.93,0,0,0,.84-.48,1.2,1.2,0,0,0,.32-.85,1,1,0,0,0-.38-.86,2.69,2.69,0,0,0-1-.47l-1.11-.29a10.64,10.64,0,0,1-2.64-.88,5.54,5.54,0,0,1-2-1.55,3.61,3.61,0,0,1-.74-2.29,4.25,4.25,0,0,1,.78-2.56,5.06,5.06,0,0,1,2.05-1.65,6.44,6.44,0,0,1,2.73-.59,7.27,7.27,0,0,1,3.27.74,5.88,5.88,0,0,1,2.35,2.09l-2.88,1.7a2.42,2.42,0,0,0-.59-.66,3.15,3.15,0,0,0-.85-.51,2.86,2.86,0,0,0-1-.23,4.26,4.26,0,0,0-1.22.11,1.9,1.9,0,0,0-.89.51,1.33,1.33,0,0,0-.34,1,.91.91,0,0,0,.45.84,3.53,3.53,0,0,0,1.08.43c.42.1.83.21,1.22.33A14.82,14.82,0,0,1,191,23a5.81,5.81,0,0,1,1.86,1.54,3.38,3.38,0,0,1,.68,2.18,3.91,3.91,0,0,1-.87,2.53,5.34,5.34,0,0,1-2.24,1.65A6.22,6.22,0,0,1,187.52,31.35Z"/><path class="cls-1" d="M209.89,23.37v7.71h-3.64V23.43a4.76,4.76,0,0,0-.47-2.1,4.09,4.09,0,0,0-1.27-1.51,3,3,0,0,0-1.77-.57,2.91,2.91,0,0,0-1.84.57,3.38,3.38,0,0,0-1.09,1.51,5.94,5.94,0,0,0-.36,2.1v7.65h-3.68V8.67h3.65v8.89a2.8,2.8,0,0,1,1.49-1.45,6.11,6.11,0,0,1,2.18-.36,6.19,6.19,0,0,1,3.58,1A7,7,0,0,1,209,19.56,9.1,9.1,0,0,1,209.89,23.37Z"/><path class="cls-2" d="M10.36,0V10.36H0A10.36,10.36,0,0,1,10.36,0Z"/><path class="cls-3" d="M41.45,20.72A10.36,10.36,0,0,1,31.09,31.09V20.72Z"/><path class="cls-4" d="M31.09,31.09A10.36,10.36,0,0,1,20.72,41.45V31.09Z"/><path class="cls-5" d="M31.09,10.36V31.08H20.72A10.36,10.36,0,0,1,10.36,20.72V0H20.72A10.36,10.36,0,0,1,31.09,10.36Z"/><path class="cls-1" d="M25.91,10.36a5.18,5.18,0,1,1-5.19-5.18A5.18,5.18,0,0,1,25.91,10.36Z"/><circle class="cls-6" cx="20.72" cy="10.36" r="2.59"/></g></g></svg>